<?xml version="1.0" encoding="UTF-8" standalone="no"?>
<!DOCTYPE svg PUBLIC "-//W3C//DTD SVG 1.1//EN" "http://www.w3.org/Graphics/SVG/1.1/DTD/svg11.dtd">
<svg width="100%" height="100%" viewBox="0 0 1000 1000" version="1.1" xmlns="http://www.w3.org/2000/svg" xmlns:xlink="http://www.w3.org/1999/xlink" xml:space="preserve" xmlns:serif="http://www.serif.com/" style="fill-rule:evenodd;clip-rule:evenodd;stroke-linejoin:round;stroke-miterlimit:2;">
    <g transform="matrix(1.767836,0,0,1.767836,-173.425171,-652.461951)">
        <g transform="matrix(0,-0.532322,0.532322,0,205.734336,843.035108)">
            <path d="M397.44,518.878C400.168,516.679 403.162,514.797 406.366,513.287C403.447,515.232 400.471,517.096 397.44,518.878ZM430.126,597.33C431.294,597.141 432.465,596.963 433.64,596.796C432.484,597.02 431.312,597.198 430.126,597.33Z" style="fill:rgb(242,13,13);"/>
        </g>
        <g transform="matrix(0.532322,0,0,0.532322,330.615599,198.910299)">
            <path d="M416.445,509.956C417.824,509.679 419.226,509.466 420.648,509.321C419.252,509.548 417.851,509.76 416.445,509.956ZM452.1,588.473C449.892,590.168 447.519,591.66 445.011,592.92C444.901,592.975 444.792,593.029 444.682,593.084C447.203,591.417 449.766,589.81 452.37,588.264C452.28,588.334 452.19,588.404 452.1,588.473Z" style="fill:rgb(242,13,13);"/>
        </g>
        <path d="M410.333,439.641C410.222,438.713 410.164,437.768 410.164,436.809C410.164,423.807 420.721,413.251 433.723,413.251C441.782,413.251 448.901,417.306 453.15,423.486C453.502,424.061 453.86,424.633 454.224,425.201C471.981,452.934 503.062,471.331 538.407,471.331C543.12,471.331 547.758,471.004 552.298,470.371C553.047,470.266 553.792,470.154 554.536,470.033C555.33,469.952 556.137,469.91 556.952,469.91C569.955,469.91 580.511,480.467 580.511,493.469C580.511,501.018 576.952,507.743 571.422,512.056C570.036,512.879 568.671,513.734 567.329,514.621C540.279,532.502 522.42,563.187 522.42,598.011C522.42,602.827 522.761,607.564 523.422,612.199C523.511,612.825 523.606,613.448 523.706,614.07C523.802,614.933 523.851,615.81 523.851,616.698C523.851,629.701 513.295,640.257 500.293,640.257C492.881,640.257 486.264,636.827 481.945,631.469C480.996,629.856 480.003,628.272 478.968,626.718C461.06,599.835 430.473,582.108 395.778,582.108C391.212,582.108 386.717,582.415 382.313,583.009C381.183,583.162 380.058,583.333 378.94,583.524C378.321,583.572 377.695,583.597 377.063,583.597C364.061,583.597 353.505,573.041 353.505,560.039C353.505,552.091 357.449,545.057 363.486,540.789C364.235,540.333 364.979,539.867 365.716,539.392C393.294,521.606 411.57,490.614 411.57,455.387C411.57,450.524 411.221,445.743 410.549,441.065C410.48,440.589 410.408,440.115 410.333,439.641Z" style="fill:rgb(115,148,235);"/>
        <g transform="matrix(1,0,0,1,-110.593164,55.782648)">
            <path d="M476.456,589.041L433.462,588.806C433.341,588.806 433.225,588.855 433.14,588.941C433.055,589.028 433.009,589.145 433.011,589.266L435.568,718.014L435.568,718.024C437.258,757.528 461.897,785.175 466.553,790.061L345.137,790.062L345.137,774.164C393.082,766.313 389.375,720.393 389.308,719.602L387.17,580.515C385.838,464.088 291.465,449.989 284.331,449.406L268.485,385.516C337.975,443.834 417.213,413.883 418.129,413.534C421.44,412.272 424.579,411.588 427.532,411.347C429.379,411.037 431.277,410.875 433.212,410.875C452.014,410.875 467.279,426.14 467.279,444.942C467.279,451.585 465.374,457.787 462.08,463.029C460.947,464.833 459.65,466.522 458.21,468.078C457.063,469.059 455.967,470.097 454.924,471.187C447.15,479.312 442.373,490.326 442.373,502.447C442.373,527.412 462.641,547.681 487.607,547.681C489.809,547.681 491.976,547.523 494.094,547.218C510.93,547.499 524.971,551.718 536.315,557.394C638.414,601.453 563.86,797.809 670.999,802.797C699.469,804.122 714.565,776.168 714.565,776.168C714.565,776.168 705.247,808.031 705.335,809.291C705.335,809.291 650.462,866.11 579.463,810.073C501.88,748.839 574.712,597.981 476.456,589.041Z" style="fill:rgb(115,148,235);"/>
        </g>
    </g>
</svg>
